<?xml version="1.0" standalone="no"?>
<!DOCTYPE svg PUBLIC "-//W3C//DTD SVG 20010904//EN"
 "http://www.w3.org/TR/2001/REC-SVG-20010904/DTD/svg10.dtd">
<svg version="1.0" xmlns="http://www.w3.org/2000/svg"
 width="202.000000pt" height="148.000000pt" viewBox="0 0 202.000000 148.000000"
 preserveAspectRatio="xMidYMid meet">

<g transform="translate(0.000000,148.000000) scale(0.100000,-0.100000)"
fill="#000000" stroke="none">
<path d="M470 1340 l0 -60 -60 0 -60 0 0 -60 0 -60 -60 0 -60 0 0 -174 0 -173
28 -5 c15 -3 41 -4 57 -3 l30 2 3 176 2 177 60 0 60 0 0 60 0 60 175 0 175 0
0 -60 0 -60 60 0 60 0 0 60 0 60 -60 0 -60 0 0 60 0 60 -175 0 -175 0 0 -60z"/>
<path d="M1180 1340 l0 -60 -60 0 -60 0 0 -60 0 -60 -55 0 -55 0 0 -55 0 -55
55 0 55 0 0 55 0 55 60 0 60 0 0 60 0 60 180 0 180 0 0 -60 0 -60 55 0 55 0 0
60 0 59 -57 3 -58 3 0 55 0 55 -177 3 -178 2 0 -60z"/>
<path d="M1660 985 c0 -96 3 -176 8 -176 4 -1 28 -2 55 -3 l47 -2 0 178 0 178
-55 0 -55 0 0 -175z"/>
<path d="M350 745 l0 -55 60 0 60 0 0 55 0 55 -60 0 -60 0 0 -55z"/>
<path d="M1540 745 l0 -55 55 0 55 0 0 55 0 55 -55 0 -55 0 0 -55z"/>
<path d="M1424 675 c-2 -5 -5 -32 -6 -59 l-3 -50 -57 3 -58 2 0 -60 0 -61 -60
0 -60 0 0 -60 0 -60 -60 0 -60 0 0 -60 0 -60 -60 0 -60 0 0 60 0 60 -54 0
c-53 0 -54 0 -57 -32 -2 -18 -3 -45 -1 -61 3 -26 6 -27 58 -27 l54 0 0 -60 0
-60 60 0 60 0 0 60 0 60 60 0 60 0 0 60 0 60 60 0 60 0 0 60 0 60 60 0 60 0 0
60 0 60 58 0 57 0 -1 38 c-1 71 0 70 -55 74 -29 1 -53 -1 -55 -7z"/>
<path d="M470 625 l0 -56 58 3 57 3 3 53 3 52 -60 0 -61 0 0 -55z"/>
<path d="M590 510 l0 -60 55 0 56 0 -3 58 -3 57 -52 2 -53 2 0 -59z"/>
<path d="M710 391 l0 -61 55 0 56 0 -3 58 -3 57 -52 3 -53 3 0 -60z"/>
</g>
</svg>
