<?xml version="1.0" standalone="no"?>
<!DOCTYPE svg PUBLIC "-//W3C//DTD SVG 20010904//EN"
 "http://www.w3.org/TR/2001/REC-SVG-20010904/DTD/svg10.dtd">
<svg version="1.0" xmlns="http://www.w3.org/2000/svg"
 width="200.000000pt" height="150.000000pt" viewBox="0 0 200.000000 150.000000"
 preserveAspectRatio="xMidYMid meet">

<g transform="translate(0.000000,150.000000) scale(0.100000,-0.100000)"
fill="#000000" stroke="none">
<path d="M485 1364 c-16 -21 -37 -46 -47 -56 -12 -12 -13 -18 -5 -18 6 0 20
14 30 32 l18 31 15 -27 c7 -16 14 -30 14 -31 0 -2 -19 -14 -43 -28 -23 -14
-65 -49 -92 -79 -28 -29 -53 -52 -57 -51 -4 2 -5 -4 -2 -12 4 -8 2 -15 -3 -15
-5 0 -10 -6 -11 -12 0 -7 -8 -33 -18 -58 -26 -68 -24 -217 4 -294 17 -47 19
-62 9 -69 -9 -6 -8 -7 3 -4 9 2 26 -14 44 -42 16 -25 51 -72 79 -104 37 -44
47 -61 38 -70 -6 -6 -11 -16 -11 -22 0 -5 5 -2 11 8 14 25 23 22 82 -26 29
-23 62 -49 74 -57 12 -8 23 -24 25 -35 2 -16 -4 -21 -32 -26 l-35 -6 33 -2
c21 -1 32 -6 32 -15 0 -8 12 -28 26 -43 l26 -28 -21 29 c-12 16 -21 37 -21 47
0 14 7 17 45 14 29 -2 49 2 56 11 15 18 47 18 83 -1 15 -8 41 -15 56 -15 33 0
47 -14 53 -55 4 -30 4 -30 6 4 1 32 2 33 19 19 9 -9 33 -24 52 -33 19 -10 37
-21 40 -26 3 -4 17 -10 31 -14 19 -5 33 0 56 19 20 17 37 23 51 19 12 -3 22
-7 22 -9 0 -16 -26 -54 -44 -62 -11 -6 -15 -11 -8 -11 7 -1 24 11 37 25 14 15
30 24 38 21 7 -3 23 0 35 7 19 10 20 14 9 36 -10 18 -20 24 -40 23 -15 -1 -27
1 -27 5 1 4 37 28 80 53 65 38 80 43 83 30 3 -11 5 -9 6 6 1 25 16 38 26 23 3
-5 12 -10 18 -10 7 0 6 4 -3 10 -11 7 3 25 70 87 67 62 90 78 114 78 26 0 31
4 33 25 1 22 1 22 -4 3 -4 -22 -22 -30 -36 -17 -3 3 13 33 34 67 31 47 45 62
62 60 15 -1 17 0 5 3 -22 7 -22 2 3 77 37 108 32 248 -12 329 -8 15 -7 24 4
36 8 9 17 26 19 37 4 17 8 14 21 -15 9 -19 16 -29 17 -22 0 24 -20 51 -49 66
-18 10 -30 26 -34 45 -7 36 -40 71 -64 70 -14 0 -14 -2 3 -9 23 -9 54 -47 54
-66 0 -26 -45 -24 -80 4 -19 16 -50 37 -67 47 -25 15 -32 24 -27 40 6 18 5 19
-7 3 -13 -16 -19 -16 -89 0 -65 16 -83 16 -140 4 -83 -16 -155 -51 -214 -103
l-46 -41 -46 41 c-25 22 -72 52 -104 67 -53 24 -58 29 -49 48 l10 21 -16 -21
c-13 -18 -21 -20 -58 -14 -25 5 -47 16 -56 29 -7 12 -18 21 -23 21 -5 0 -2 -8
8 -17 16 -17 16 -18 -7 -24 -51 -14 -68 -11 -62 14 13 51 78 64 117 22 21 -22
25 -23 36 -10 28 34 120 8 120 -33 0 -7 10 -12 23 -11 14 0 17 3 8 6 -8 3 -26
19 -39 34 -18 22 -32 29 -61 29 -20 0 -42 -5 -48 -11 -9 -9 -19 -6 -39 10 -31
25 -71 27 -100 6 -12 -8 -24 -11 -28 -8 -4 4 -12 8 -19 9 -7 2 -21 6 -33 9
-16 5 -27 -2 -49 -31z m944 -65 c54 -12 106 -39 149 -76 28 -24 32 -32 26 -59
-6 -30 -10 -33 -103 -58 -54 -14 -103 -26 -110 -26 -7 0 -22 11 -33 25 -12 16
-30 25 -47 25 -30 0 -109 -46 -156 -91 -30 -28 -31 -28 -97 -19 -38 6 -93 6
-126 2 l-60 -8 11 30 c9 28 8 32 -27 62 -60 52 -247 187 -252 182 -2 -3 33
-34 78 -68 96 -73 104 -80 96 -80 -3 0 -37 24 -76 54 -83 64 -107 78 -117 68
-5 -4 -5 0 0 8 6 12 5 13 -5 3 -7 -7 -16 -40 -20 -75 -7 -61 -7 -61 -7 -13 -1
75 9 111 30 107 9 -2 17 2 17 9 0 8 27 10 94 7 79 -3 102 -8 157 -35 35 -18
83 -50 106 -73 l43 -40 41 40 c101 97 238 133 388 99z m-904 -199 c-9 -99 -13
-189 -10 -200 3 -10 22 -24 41 -30 48 -16 55 -5 10 14 -35 15 -36 16 -34 68
l1 53 6 -50 c5 -46 9 -51 44 -68 40 -19 45 -28 22 -47 -8 -6 -24 -37 -36 -68
-30 -81 -24 -200 14 -264 29 -50 89 -108 138 -133 24 -13 29 -19 18 -26 -8 -5
-20 -2 -31 8 -11 10 -26 13 -43 9 -61 -15 -266 178 -334 314 -94 188 -70 385
62 513 47 46 135 102 145 92 2 -2 -4 -85 -13 -185z m22 -37 c-2 -16 -4 -5 -4
22 0 28 2 40 4 28 2 -13 2 -35 0 -50z m290 41 c36 -27 41 -50 17 -80 -14 -18
-15 -18 -4 4 15 31 6 53 -32 80 -18 12 -29 22 -24 22 5 0 24 -11 43 -26z m506
-2 c28 -31 47 -90 47 -146 0 -45 -4 -58 -22 -70 -21 -15 -23 -15 -36 9 -7 14
-19 25 -26 25 -17 0 -41 -28 -32 -37 3 -4 13 2 20 13 14 18 15 18 26 -7 10
-22 9 -31 -5 -53 -10 -14 -25 -26 -34 -26 -48 0 -197 99 -188 124 17 46 17 55
0 59 -10 2 -7 3 6 2 17 -2 40 10 72 38 48 41 124 87 145 87 6 0 18 -8 27 -18z
m264 -44 l-16 -43 6 44 6 44 -39 -6 -39 -6 40 13 c22 8 44 10 49 6 4 -5 1 -28
-7 -52z m93 -3 c29 -88 29 -223 0 -299 l-10 -26 -47 36 c-26 20 -57 40 -70 45
l-22 8 19 57 c20 56 19 82 -1 54 -9 -12 -9 -11 -4 5 3 11 9 34 13 50 6 30 6
30 12 5 6 -21 10 -16 25 38 17 57 21 62 46 62 23 0 30 -6 39 -35z m-682 -52
c-15 -2 -42 -2 -60 0 -18 2 -6 4 27 4 33 0 48 -2 33 -4z m-111 -9 c-3 -3 -12
-4 -19 -1 -8 3 -5 6 6 6 11 1 17 -2 13 -5z m644 -125 c-5 -13 -10 -19 -10 -12
-1 15 10 45 15 40 3 -2 0 -15 -5 -28z m-467 7 c50 -21 79 -63 72 -106 -5 -36
-45 -80 -72 -80 -8 0 -14 -4 -14 -10 0 -18 -30 -11 -31 8 -1 16 -2 16 -6 0 -5
-22 -23 -24 -23 -3 0 8 -4 15 -10 15 -5 0 -10 -4 -10 -10 0 -5 -7 -10 -15 -10
-8 0 -15 7 -15 15 0 8 -11 25 -25 39 -37 37 -33 80 9 122 38 38 82 44 140 20z
m331 -26 c21 -24 16 -41 -23 -68 -26 -19 -31 -20 -50 -6 -29 20 -28 48 4 73
33 26 46 26 69 1z m-801 -42 c-10 -18 -23 -51 -30 -73 -7 -22 -13 -31 -13 -20
-1 21 44 125 54 125 3 0 -2 -15 -11 -32z m972 -21 c45 -23 94 -66 94 -83 0 -7
-9 -18 -21 -24 -11 -7 -18 -18 -15 -25 11 -29 -116 -171 -224 -252 -67 -50
-210 -136 -210 -125 0 16 18 31 65 55 53 26 127 98 147 142 6 14 19 25 28 25
35 0 159 91 182 135 6 11 -13 -2 -43 -29 -63 -57 -107 -86 -131 -86 -37 0
-108 136 -108 204 0 28 43 48 76 36 28 -11 31 -27 7 -33 -14 -4 -13 -5 4 -6
34 -2 40 20 10 42 -25 19 -25 21 -9 42 16 21 20 21 67 10 27 -6 64 -19 81 -28z
m-713 -88 c12 -6 45 -27 74 -47 l52 -35 87 17 86 17 34 -23 c19 -13 34 -27 34
-31 0 -5 9 -21 19 -36 42 -58 33 -159 -19 -206 -17 -16 -20 -16 -48 5 -42 31
-85 21 -107 -26 -15 -33 -18 -34 -58 -28 -103 14 -243 51 -297 79 -74 38 -161
150 -159 205 0 8 9 -7 19 -35 17 -43 59 -105 71 -105 2 0 4 31 4 68 0 60 4 73
28 105 27 36 67 62 117 78 35 10 39 10 63 -2z m-301 -48 c2 -22 0 -37 -4 -35
-8 5 -11 74 -4 74 2 0 6 -18 8 -39z m830 -178 c-24 -46 -84 -104 -132 -128
-31 -16 -33 -16 -21 -2 7 10 20 17 27 17 23 0 89 66 115 114 13 25 25 43 27
41 2 -1 -6 -20 -16 -42z m-704 -141 c3 -16 -2 -22 -17 -22 -26 0 -36 17 -20
36 16 19 33 13 37 -14z m496 12 c21 -21 20 -39 -3 -61 -11 -10 -24 -31 -30
-46 -6 -15 -22 -32 -36 -39 -21 -9 -28 -8 -45 7 -26 23 -25 35 5 101 23 50 27
54 59 54 19 0 42 -7 50 -16z m-454 -24 c0 -5 -4 -10 -10 -10 -5 0 -10 5 -10
10 0 6 5 10 10 10 6 0 10 -4 10 -10z m242 -27 c-6 -2 -9 -10 -5 -16 5 -8 2 -8
-9 0 -8 7 -18 10 -21 6 -4 -3 -7 -1 -7 5 0 7 12 12 28 11 15 0 21 -3 14 -6z
m237 -54 c3 -11 1 -12 -11 -2 -8 7 -19 9 -23 5 -5 -4 -5 -1 -1 6 9 16 28 11
35 -9z m59 -14 c4 -20 -15 -36 -35 -28 -17 6 -17 40 0 46 19 8 32 2 35 -18z"/>
<path d="M944 784 c-16 -23 -16 -27 -2 -41 18 -18 36 -10 48 21 8 21 -4 46
-21 46 -5 0 -16 -12 -25 -26z"/>
<path d="M1074 776 c-10 -26 0 -61 19 -64 21 -4 31 19 23 53 -7 27 -33 34 -42
11z"/>
<path d="M740 569 c0 -5 -5 -7 -11 -3 -7 4 -10 1 -7 -7 2 -8 19 -15 38 -17 18
-2 44 -11 58 -20 21 -13 24 -14 20 -2 -2 8 -18 21 -34 29 -16 8 -37 18 -46 23
-12 5 -18 4 -18 -3z"/>
<path d="M1216 553 c-4 -5 -24 -13 -44 -18 -33 -9 -37 -15 -40 -47 -2 -23 3
-41 13 -52 20 -19 26 -20 48 -3 19 14 40 97 25 97 -6 0 -5 6 2 15 13 15 9 21
-4 8z"/>
<path d="M950 455 c-16 -19 -4 -35 26 -35 28 0 34 34 8 44 -21 8 -20 8 -34 -9z
m40 -15 c0 -5 -6 -10 -14 -10 -8 0 -18 5 -21 10 -3 6 3 10 14 10 12 0 21 -4
21 -10z"/>
<path d="M920 413 c0 -32 68 -45 90 -18 8 9 9 15 2 15 -6 0 -14 -4 -17 -10 -9
-15 -42 -12 -59 6 -9 8 -16 12 -16 7z"/>
<path d="M1286 1379 c-20 -16 -30 -19 -39 -10 -6 6 -28 11 -48 11 -29 0 -43
-7 -61 -29 -13 -15 -31 -31 -39 -34 -9 -3 -6 -6 9 -6 12 -1 22 5 22 12 0 40
93 65 120 32 11 -13 15 -12 36 10 31 33 77 33 107 1 17 -18 27 -22 38 -15 25
16 72 10 98 -13 l26 -23 -24 28 c-25 28 -71 36 -99 18 -9 -5 -22 0 -37 15 -30
30 -73 31 -109 3z"/>
<path d="M1050 1319 c-14 -5 -31 -17 -37 -26 -12 -15 -15 -15 -36 5 -13 12
-30 22 -38 22 -8 0 -3 -6 11 -13 13 -7 30 -22 36 -34 11 -22 11 -22 33 7 12
17 28 30 36 30 7 0 17 5 20 10 7 12 8 12 -25 -1z"/>
<path d="M362 1293 c-16 -6 -42 -57 -42 -83 0 -11 -7 -20 -15 -20 -22 0 -65
-45 -65 -67 1 -11 6 -6 14 13 14 31 33 44 65 44 14 0 17 6 13 25 -5 30 20 72
51 85 12 5 15 9 7 9 -8 -1 -21 -3 -28 -6z"/>
<path d="M1558 1293 c7 -3 16 -2 19 1 4 3 -2 6 -13 5 -11 0 -14 -3 -6 -6z"/>
<path d="M244 1078 c3 -11 -6 -29 -24 -47 -20 -20 -30 -39 -29 -58 1 -26 2
-26 9 7 5 19 21 44 35 56 23 18 26 24 15 40 -9 16 -11 16 -6 2z"/>
<path d="M1746 1073 c-5 -11 2 -24 19 -38 15 -11 30 -36 35 -55 7 -33 8 -33 9
-7 1 19 -9 38 -29 58 -17 17 -27 36 -23 44 3 8 3 15 0 15 -3 0 -8 -8 -11 -17z"/>
<path d="M235 990 c-3 -6 1 -7 9 -4 18 7 21 14 7 14 -6 0 -13 -4 -16 -10z"/>
<path d="M230 960 c0 -5 5 -10 11 -10 5 0 7 5 4 10 -3 6 -8 10 -11 10 -2 0 -4
-4 -4 -10z"/>
<path d="M209 922 c10 -18 9 -27 -4 -44 -25 -36 -19 -76 16 -109 18 -16 35
-27 38 -23 3 4 0 9 -8 12 -50 17 -66 81 -31 124 19 25 19 25 -2 44 -21 19 -21
19 -9 -4z"/>
<path d="M1777 923 c-14 -16 -14 -20 4 -42 34 -42 17 -107 -32 -123 -11 -4
-11 -9 -1 -29 7 -13 10 -16 7 -6 -3 13 5 28 25 47 34 32 39 72 15 108 -12 16
-13 26 -5 42 13 25 8 26 -13 3z"/>
<path d="M1750 680 c0 -8 -10 -25 -22 -38 l-23 -25 22 12 c22 11 40 47 29 58
-3 4 -6 0 -6 -7z"/>
<path d="M240 677 c0 -17 20 -45 37 -51 16 -5 16 -5 2 6 -8 7 -21 22 -27 33
-6 11 -12 16 -12 12z"/>
<path d="M308 595 c2 -14 6 -25 8 -25 2 0 4 11 4 25 0 14 -4 25 -9 25 -4 0 -6
-11 -3 -25z"/>
<path d="M1680 595 c0 -14 2 -25 4 -25 2 0 6 11 8 25 3 14 1 25 -3 25 -5 0 -9
-11 -9 -25z"/>
<path d="M310 552 c0 -20 47 -62 69 -62 13 0 21 -8 23 -22 3 -21 4 -21 9 5 6
24 3 27 -20 27 -30 0 -53 15 -69 45 -6 11 -12 14 -12 7z"/>
<path d="M1680 552 c0 -22 -40 -52 -69 -52 -25 0 -28 -3 -23 -26 3 -16 -3 -37
-17 -57 l-22 -32 25 28 c14 15 26 39 26 51 0 18 7 25 30 29 28 6 69 51 56 64
-3 3 -6 1 -6 -5z"/>
<path d="M410 433 c0 -5 10 -18 23 -29 l22 -19 -20 25 c-11 14 -21 27 -22 29
-2 2 -3 0 -3 -6z"/>
<path d="M490 389 l-35 -6 33 -2 c21 -1 32 -6 32 -15 0 -8 10 -25 23 -38 12
-13 16 -16 8 -6 -7 9 -16 30 -20 45 -5 26 -9 28 -41 22z"/>
<path d="M1470 375 c0 -12 3 -16 8 -8 4 6 21 13 37 15 29 3 29 4 -7 9 -33 4
-38 2 -38 -16z"/>
<path d="M1446 322 l-19 -27 24 22 c12 12 21 24 18 27 -2 2 -13 -8 -23 -22z"/>
<path d="M1350 284 c0 -12 -9 -34 -21 -50 l-21 -29 26 28 c14 15 26 34 26 42
0 8 13 15 33 17 l32 3 -37 6 c-34 4 -38 3 -38 -17z"/>
<path d="M739 233 c10 -19 8 -22 -12 -26 -12 -2 -7 -3 11 -1 27 2 35 -2 47
-25 14 -28 42 -47 53 -36 3 3 0 5 -6 5 -13 0 -42 28 -42 41 0 14 43 10 64 -6
11 -8 27 -15 35 -15 8 0 -2 9 -24 20 -22 11 -50 20 -64 20 -14 0 -36 10 -49
23 l-25 22 12 -22z"/>
<path d="M923 193 c-7 -2 -13 -11 -13 -18 0 -8 -8 -19 -17 -24 -10 -6 -13 -11
-6 -11 6 0 15 5 18 10 3 6 18 -3 32 -20 13 -16 29 -30 35 -30 6 0 -1 9 -14 20
-27 21 -42 56 -28 65 10 6 62 -15 72 -30 5 -7 8 -6 8 1 0 6 9 15 21 20 17 8
12 10 -23 10 -23 0 -50 3 -58 6 -8 4 -21 4 -27 1z"/>
<path d="M1070 156 c0 -8 -12 -24 -26 -35 -15 -12 -22 -21 -16 -21 6 0 22 14
35 30 14 17 29 26 32 20 3 -5 11 -10 18 -10 12 0 -23 29 -35 30 -5 0 -8 -6 -8
-14z"/>
</g>
</svg>
