<?xml version="1.0" encoding="UTF-8"?>
<svg version="1.1" viewBox="0 0 900 900" width="225" height="225" xmlns="http://www.w3.org/2000/svg">
<path transform="translate(0)" d="m0 0h900v900h-900z" fill="#FCFCFC"/>
<path transform="translate(381,112)" d="m0 0h7l3 1h7l8 4 8 7 7 11 2 7-1 21-4 6-6 8-5 5-6 5 5 13 7 15 3 10 4 9 2 9 1 2v7h-2l3 10-11 13-5 5-1 3-3 2 14 14 8 14 5 14 1 1 2 17 3 12 5 36v10l-2 2v9l-4 6-2 1 1 6-5 8-5 3-6 10-14 16-11 11-11 3-20 11 2 4 2 2 6 2 1 7v9l-3 7-6 4-12 3 1 9 2 7v6h13l4 1 2-2 19 1 1-1 1-16 1-4v-12l-2-5-2-9-6-9 4-2 12-1 6 9 3 6v11l2 2-1 12 6 10 5 6 4 11 4 10 2 15 2 3v8l-4 7-1 9-3 5-11 6-6 1 2 10 1 8-1 16-2 8-1 9-5 7-1 7-6 5-9 13-9 7-19 10-11 5-11 4h-14l-16-4-8-3-15-7-13-7-6-6v-2l-4-2-7-8-2-1-2 5-7 7-7 8-6 1-10 5-9 1-4 1-9-1-10 1-5-3-9-2-11-8-10-9-14-14-9-16-1-3-1-13-4-13-1-9-1-1v-15l2-3 2-18 4-18 2-6 2-11 6-23 7-19 2-10-12-5-7-6-11-7-6-8-3-5-7-10-8-22-2-10v-19l-1-5 2-18 1-2 2-14 1-8 4-5 5-12 1-2-10-1-14-5-7-8-2-5 1-1v-5l-3-7-1-18-3-5 1-9-2-7-1-11 1-6-4 1h-9l-8-4-3-5-4-6-3-4-1-9v-11l5-15 7-5 3-5 13-5 2-1 11 1 12 6 5 5 4 10 3 4 5 3 2 2h5l5-1 5 1 5 2 6 2 2-2 12 1 3 2 18 3 15 8 5 5-1 5 3 5v18l10-8 16-7 10-4 2-2 7 1 12-2 3-2h17l3-1h8l4 1-3-19 1-13 1-9 6-8 15-9 3-2 4-1 11-9 23-12 5-3-1-20 3-9 4-6 5-5 8-5z" fill="#070607"/>
<path transform="translate(696,162)" d="m0 0h9l12 4 9 6 6 5 8 14 3 3 1 9 1 1v7l1 7-2 13-4 13-1 4-1 9 11-4 9 1 5-2 9 2 13 2 9 3 7 4 10 7 13 11 4 4 3 7 5 6-1 4 5 10 2 7 2 17 2 11-1 2-1 16-1 9-1 7-4 9-7 9-2 5 3 4 2 16 1 7-1 3 1 5v18l-1 11v5l-4 4v6l-8 14-4 2-2 4-7 10 3 6 3 12 2 5-1 11v12l-2 5v6l-8 14-7 8-5 4-10 4-1 1h-14l-1 9-2 5-3 14-3 11-1 5-5 16-6 17v5l-5 4-5 10-9 11-8 7-10 5-18 3-1 1h-12l-13-5-15-10-8-11-7-5-12 2-10 2-11 1h-16l-14-5-12-5-12-11-7-10-5-10-2-2-3-14v-20l-2-5v-8l4-35 2-11-9-6-6-7-10-18-3-7-1-9 2-13 3-7 7-9 7-6 5-2h4l-3-5-5-5 1-5 6-2h8v2l4 2 8 5-3-10 5-1 9 2 6 9 1 9 11 8 10 5 5 3 19 6 8 4 9 1 9 3h7l9 2 18 1 6-1 3 2h15l5-1 11 2h26l8-4 6-5 5-8 3-2-1-6 5-10v-14l-1-4-1-9-5-13-7-8-5-5-8-6-10-7-3-2-8-2-23-11-6 1-1-3-4-1-3-2-7 1-7-4h-5l-5 1-7-2-8 1-4-1-26-1-5 3h-6l-4-1-2 3-9 1-3 5-6 1v6l-9 9-2 3-6-1 1-6 5-10 4-3-1-13 11-7 13-5 38-4 2 1 17 1 18 3 15 2 12 3 7 3 15 6 19 10 9 6 10 6 6 8 7 7 4 7 4 5 3 10 2 7 2 12v13l-5 15 1 3-6 12 7-2 11-8 8-7 3-1 1-3 4-4 3-5 4-16 2-12v-16l-3-16-2-5-4 2-7 2h-12l-14-7-9-6-5-8-8-6-9-13-9-21-1-3v-13l-2-4v-14l2-4h2l2-4 3-2h3l4 15-1 7 4 13 2 9 4 13 6 3v5l9 8 3 4v2l9 3 5 5 7 2 12-6 7-6 4-8 4-7 3-10v-6l-1-7 1-3v-12l-2-6-1-11-5-13-12-16-9-8-17-8-7-2-15-1h-12l-15 1-6 4-7 6-3 9h-6l-8-4 1-6 5-10 5-9 3-5 2-2v-6l4-5 6-22-1-14-6-14-7-7-7-5-5-2h-19l-23 5-13 10-7 5-4 8-9 9-5 8-6 8-9 17-3 6-8 14-1 3 12 14v2l10-1 2 1 10 1 3 2 4-8 9-9 16-6h12l15 9 7 8 2 10-3 14-1 5-2 6-3 2v15l-7 14-10 4h-16l-12-5-9-4-4-6h-7l-2 1h-6l-3-2-3 7-8 11-9 4h-7l-3 1h-7l-2-1-9-1-10-4-3 9-6 13-3 12-5 13-2 12-2 4h-2l-2 4-8 7-4 1 1-10 4-19 8-27 5-10 6-8 6-9 3-4v-12l4-12-1-5-7-9-1-5 5-15 6-8 10-7 4-2h9l5 1 2-14 6-15 9-16 9-15 7-8 3-3 2-5 4-4 6-3 8-7 5-6 10-5 7-4 15-4 4 2 5-2z" fill="#090809"/>
<path transform="translate(162,506)" d="m0 0 6 1 14 3 8 2 9 1 13 2 16 4-1 3-2 1-14 1-4 1h-9l3 6 4 3 11 3h14l6-1h20l16 4 9 4 3 4 1 5v14l1 4-6 12-11 9-7 3-9 3-1 1-15 1-4-1-5 1-3-1-3-3h-7l-6 8 1 3 9 6 5 2h25l18-4 11-7 7-2 6-6 2-7 10 1 3-2h13l5-2 5-9 2-12 4-1 9 13 7 13 4 5 1 5 4 4 11 1 4-2 4-9 2-2 6 1 7 2-1 5v9l2 14 3 9 1 10-2 5 2 5-5 13-7 16-8 10-11 8-17 7-11 3-5 4-12-1-9-1-9-4-7-1-3-5-22-10-13-13-2-1h-10l-8 6-5 5-6 5-8 6-13 2-19-2-9-3-13-10-9-10v-2l-4-2-3-4-7-14-1-9-2-6-2-11v-23l4-5 2-16 2-11 4-16 2-9 3-10 2-7 1-7 1-2z" fill="#FCFBFB"/>
<path transform="translate(685,180)" d="m0 0h19l8 4 12 11 6 14 1 14-7 24-3 3v6l-4 4-4 9-5 8-4 11 5 1 3 2h6l3-9 11-9 2-1 19-1h10l13 1 12 4 13 7 10 9 11 15 5 13 1 11 2 6v13l-1 7 1 2-1 9-4 11-5 8-3 5-9 7-10 4-8-3-3-4-7-3-10-10-5-6v-4l-5-2-4-10-2-6-2-10-3-10 1-7-3-15-6 3-2 3h-2l-1 4v14l2 4v13l6 15 3 5 3 7 6 8v2l4 2 5 4 6 9 16 9 5 2h12l8-3h4l3 10 2 11v16l-3 17-3 11-6 9-8 7-6 5-13 9h-5l2-5 3-8-1-3 4-11 1-7v-9l-3-17-3-7-2-6-6-8-3-5-8-8-3-5-9-5-9-6-15-8-16-7-16-6-10-2-19-2-11-2-16-1-4-1-36 4-13 5-9 6h-2l-1 3-6 1-2 4-10 9-7 7-6 5-3 4-2-1 2-12 6-15 3-12 9-20 6 1 4 2 9 1 2 1h7l12-2 8-4 7-10 2-7 4 2h6l2-1h7l4 5v2l9 3 12 5h16l7-3h3l2-6 4-8v-15l4-2 1-10 1-1 3-16-3-10-8-7-12-7h-12l-16 6-8 8-5 9-3-2-10-1-5-1-5 1-5-5-10-12 8-16 3-4 8-16 6-10 5-6 4-6 8-8 4-8 20-15 12-3z" fill="#F39AA7"/>
<path transform="translate(312,322)" d="m0 0 9 2 7 4 3 1 6 1 7 5 12 6 5 6 14 16 8 14 5 13 4 16 1 2v11l-1 2-1 17-4 9-2 2-2 6-6 4-3 7-7 5-5-2-13-3-13-1-3 2-9 1-2 3-5-2-9 1-9 3h-4l-5-1-13 4-3 3h-2v-2l-20 9-5 3-1 7 1 12-4-1-13-6-4-1h-13l-10-4-14-7-10-6-5-1-2-5-5-5-4-5-3-5-2-8-5-12v-20l2-3v-10l3-10 3-9 4-7 2-7 5-5 3-6 8-6 6-4 11-8 7-1 5 5 5 4 5 5 5 6 14 7 12 4 7 1 1-2h5l9-10 10-13 12-12 2-3 2-6 10-8z" fill="#FCFBFB"/>
<path transform="translate(572,387)" d="m0 0 2 1 1 10-5 5-5 10-1 4h6l7-8 3-3 1-6 6-1 2-5 10-2 2-3 10 1 5-3 26 1 5 1 9-1 5 2 10-1 7 4 7-1 7 4 1 2 6-1 25 12 8 2 9 7 9 6 4 5 7 6 5 8 4 12v8l1 4v12l-5 10 1 6-5 4-5 8-8 6-5 2h-26l-11-2-5 1h-15l-3-2-10 1-14-1-9-2h-9l-7-3-9-1-10-5-17-5-12-7-9-5-6-5-1-9-5-7v-2l-13-1 2 5v5l-4-2-8-5v-2l-11 2-5 2-14 1-25 4-67 15-23 6-10 2 6 9 3 13 1 1v12l-1 4-1 16-4 2-17-1-2 2-4-1h-11l-2-1-4-16v-6l5-2 10-3 5-5 1-4v-9l-1-7-6-2-4-4 2-4 19-10 42-10 23-8 20-8 41-14 9-4 8-4 7-8h2l1-3 5-5 3-1 1-3 8-7 13-13z" fill="#FCFBFB"/>
<path transform="translate(797,520)" d="m0 0h4v24l1 3-2 5-2 10-3 10-5 4-8 5-7 3h-8l-6 1h-6l-8 4-1 4 2 6 7 3-3 9-7 25-7 19-4 13-4 9-4 10-5 6-8 6-6 5h-8l-4 3-7-1-3 2-5-1-14-7-10-9-11-14-3-2-10 2-4 2-11 1-6 2h-14l-2-1-12-2-14-5-8-6-3-8-5-3-3-9-3-10v-11l2-29 2-13-2-2v-13h2v-27l2-1 5 4-2 9-1 5v6l-1 5 3 2 10 2 4-2h7l4 15 5 5 5 3 9-3 12-11 10-6 5-10 7-7 4-6 5 2 5 14 4 14 5 12 5 11 1 4 4 1h11l3-6 5-3 5 1 7 4 5 7 7 3h3l4-8 4-4v-4l-2-1 1-4 4-8 6-3 12-11 2-8 1-7-1-4 2-3v-16l3-3h9l10-5 10-1 13-4z" fill="#FCFBFB"/>
<path transform="translate(379,129)" d="m0 0h12l9 4 8 11 1 2v7l-4 8-9 10-7 8-2 5 1 8 11 27 7 21 2 9v9l-13 12-7 6 1 7 12 18 8 13 5 12 4 13 6 30 2 17v13l-4 12-8 17-3 5h-2l-2-10-1-19-6-21-7-17-10-16-8-11-13-12-14-8-9-4-27-6-6-1-11 12-7 6-9 11-3 3v-11l6-8 3-8v-11l-4-13-6-10-7-6-12-3-9-1v-5l4-2h38l7 1 2-3v-10l-1-10v-28l9-6 14-8 16-11 19-12 12-10 1-4-7-12 1-7 6-7z" fill="#554D4B"/>
<path transform="translate(68,207)" d="m0 0h12l4 3 5 17 3 5 12 3 29 4 23 2 10 2 10 5 3 14 2 17 2 6 9-1 18-10 11-5 4-1 1 3 4-1 3-3 9-3 1 4-12 5-11 8-6 8-2 8v12l4 11 7 8 10 5 3 1 2 7 5 2h30l-4 7-9 12-6-2-24-11-10-7-6-5-7-2-21 4-7 4-13 12-5 5-6 9-8 18-4 12-3 19v23l3 17 8 16 2 3v3l3 1 2 3v3l-11-3-10-6-11-9-6-9-6-15-5-16v-20l3-26 3-20 3-12 1-2h19v-12l-19-5-26-6-6-37-4-23-4-17-1-4-15 1-5 1-3-8-3-12 1-10 8-7z" fill="#554D4B"/>
<path transform="translate(572,387)" d="m0 0 2 1 1 10-5 5-5 10-1 4 7 2 4 4 1 8 10 4 1 1-1 10-1 15-2 4-10 2-2 3-5-7v-2l-13-1 2 5v5l-4-2-8-5v-2l-11 2-5 2-14 1-25 4-67 15-23 6-10 2 6 9 3 13 1 1v12l-1 4-1 16-4 2-17-1-2 2-4-1h-11l-2-1-4-16v-6l5-2 10-3 5-5 1-4v-9l-1-7-6-2-4-4 2-4 19-10 42-10 23-8 20-8 41-14 9-4 8-4 7-8h2l1-3 5-5 3-1 1-3 8-7 13-13z" fill="#90D0F1"/>
<path transform="translate(341,483)" d="m0 0 8 1 6-1 3 9 1 14-11 5-16 6-4 2v-2l-6 2-10 5-2 4v9l3 15 2 9v8l-3 2-11 2-1-4v-13l-2-9-3-13-4-2-5-4-10-4-11-1-7-22v-6l7-2 23-2 5-1 10-3 22-1z" fill="#DC8C92"/>
<path transform="translate(349,367)" d="m0 0 5 1 2 5v7h2l2-5 5-5 5-1 2 2-1 7-2 9 1 6 2-1 8 2 5 7 2 1 2 6 2 1 1-1h1v11l-2 2-2 1-4 7-6 7-8 5-5 1-14-2-9-7-7-13v-10l5-6h2l2-4 7-4h-10l-5-1-12 5-7 3-2 4-4-2-3-4 2-4 8-10 9-4 2-2 12-3h3l3-10z" fill="#FCF2ED"/>
<path transform="translate(197,397)" d="m0 0 4 2 4 7 6-5 14-2 5 1 4-1 4 3h6l3 2-1 4-4 9-3 3-7-1-3-2-12 1-6 5 2 1v3h2l2 7-1 15-4 9-5 5-12 6h-8l-8-4-8-10-4-10v-7l3-7 5-4 6-1 1-6-5-9 2-4h6l7 4 2-1-2-2 1-6z" fill="#FCF1ED"/>
<path transform="translate(249,278)" d="m0 0h7l10 4 7 9 2 6-7-4-7 1-4 5-1 6 1 2h3l3-7 3-1 3 2v8h9l-1 5-7 8-2 1-1 12-3-1-4-9-4-1 1 11h-4l-2-8h-4v9l-3-2-2-6-11-2-7-6-3-7-1-6v-8l4-9 5-5 10-5z" fill="#EED6D3"/>
<path transform="translate(383,492)" d="m0 0h4l6 8 2 4 2 11 1 1v12l-1 4-1 16-4 2-17-1-2 2-4-1h-11l-2-1-4-16v-6l5-2 10-3 5-5 1-4v-9l-1-7 3-3z" fill="#FBD5D3"/>
<path transform="translate(718,430)" d="m0 0 16 1 5 2v4l-8 6-3 1 4 5 2 7-2 2-1 4 4 1-1 6-1 1 10-1 2-5 2-2 4 1 2 2 3 9-1 5-6 10-4 3-4 2h-9l-12-6-5-6-2-8 4-10-1-1-1-8-6-3-4-9 1-5 10-7z" fill="#FCE9E7"/>
<path transform="translate(684,529)" d="m0 0h9l27 3 12 1 1 2-2 28-7 8-9-1-9-2-4-4-12-6-7-6-8-5 2-4 5-8z" fill="#CBE7F9"/>
<path transform="translate(574,288)" d="m0 0 4 2h5l5-1 10 4 5 5-2 5-3 7-1 16 3 5-1 7-5 7-8 3h-8l-10-5 1-10 5-8 3-5-1-7-4-4-8-5v-5l7-7z" fill="#CBE7F8"/>
<path transform="translate(655,288)" d="m0 0h16l5 2 6 5 2 7-4 5-5 5-6 4-2 8 3 6 5 3 1 3-4 3h-13l-1-1-10-2-3-4v-20l-1-13 3-5z" fill="#CBE7F9"/>
<path transform="translate(565,498)" d="m0 0 5 1 10 4v2l20 8 9 3 10 4 1 2v9l-14-1-5 1-7-1-2 1h-27l-3-3-4-1 1-15 5-12z" fill="#C9E6F9"/>
<path transform="translate(197,397)" d="m0 0 4 2 4 7 6-5 14-2 5 1 4-1 4 3h6l3 2-1 4-4 9-3 3-7-1-3-2-12 1-3 3h-11l-11 7-5 2-3-2-3-10-4-7 2-4h6l7 4 2-1-2-2 1-6z" fill="#090809"/>
<path transform="translate(349,367)" d="m0 0 5 1 2 5v7h2l2-5 5-5 5-1 2 2-1 7-2 9 1 4-3 5-6 3-9-3h-10l-5-1-12 5-7 3-2 4-4-2-3-4 2-4 8-10 9-4 2-2 12-3h3l3-10z" fill="#090909"/>
<path transform="translate(264,299)" d="m0 0 5 2v8h9l-1 5-7 8-2 1-1 12-3-1-4-9-4-1 1 11h-4l-2-8h-4v9l-3-2-2-6-11-2-7-6-3-7v-8h7v10l1 2h5l4-9 5-1 4 4 5 1-3-6 1-3 3 1 2-1 2 4h3l3-7z" fill="#EED5D1"/>
<path transform="translate(542,485)" d="m0 0 6 1 4 3-2 5-2 2-4 16 1 18 2 3v6l-5 5-8-7-4-7-5-4-1-7-1-10 5-7 2-8 9-6z" fill="#FBF8F8"/>
<path transform="translate(610,410)" d="m0 0 8 2h7l12 5 6 4-2 4-2 7-5 3-3 6-7 2-5 5-5-1-6-5-1-4 4-7 3-4h4v-2l-5-1-5-4-3-4 1-4z" fill="#090909"/>
<path transform="translate(620,544)" d="m0 0 7 1-1 5-9 7-4 5-7 2-2 6-5 3h-2v2l-4 1-4-8-3-11-2-1h-10v-3l4-5h8l6-1 7 1 1-2z" fill="#CCE7F8"/>
<path transform="translate(331,646)" d="m0 0h7l16 6 9 6 5 4v2h2l3 6-1 7-5-1-7-8-9-7-10-4h-17l-22 4-10 7h-4l2-4 8-8 14-7z" fill="#554D4B"/>
<path transform="translate(298,427)" d="m0 0 4 1 1 4-1 11-7 14-3 7-1 1-7-1-7-5-9-12-4-5 2-5 2-2 6 1 3 4v2l8 2 2-6 2-7z" fill="#0A090A"/>
<path transform="translate(600,429)" d="m0 0 5 1-1 11 4-1 4 5 4 3-1 4-1 5-2 6-4 3-11 1-9-3-3-6v-5l1-1 1-9 2-3 7-1-1-3 3-6z" fill="#FCD6D3"/>
<path transform="translate(368,394)" d="m0 0 1 2 10 1 1 3h2l3 8 1 1v8l-3 9-7 8-5 1v3l-3 1-5-1-8-1-7-6-6-11-2-10h3l2-6 2-3h4v-2l6-1 2 2-1 3-7 2-1 11v5l1 4 4 2 2 3h9l12-6 2-5v-12h-2l-2-4-8-2h-7v-3l6-3z" fill="#FCE8E6"/>
<path transform="translate(346,559)" d="m0 0 21 3 2 1 17 1 9 1 3 10v4l-15-3h-7l-9 10-5-5-10-13-5-5z" fill="#FAE3E1"/>
<path transform="translate(657,556)" d="m0 0h11l5 5 7 6 1 4 5 2 12 8 4 3 5 2 1 1v7h-4l-2-5-7-2-6-4-7 1-7 5-3-1-5-10-5-13-6-7z" fill="#C9E6F8"/>
<path transform="translate(199,643)" d="m0 0h16l12 3 11 7 4 8-1 4-6-2-11-7-8-3h-17l-11 3-9 2-3 1-2 7h-3l-1-4 6-8 11-8 5-2z" fill="#544C4A"/>
<path transform="translate(718,430)" d="m0 0 16 1 5 2v4l-8 6-3 1 4 5v4l-10 4-3 5h-2l-2-7-6-3-4-9 1-5 10-7z" fill="#0D0C0C"/>
<path transform="translate(203,420)" d="m0 0 9 1-1 2 2 1v3h2l2 7-1 15-4 9-5 5-12 6h-8l-8-4-8-10-4-10v-7l3-7 5-4 6-1 1-2h2v6h-7l-2 5-3 1 1 15h2v3l3 1v2l3 1 4 4 3 2 8-1 9-7 3-5h2l2-6-1-9v-5l-7-6-2-1z" fill="#FCF2ED"/>
<path transform="translate(719,467)" d="m0 0 12 3h7l5-1v-2h6l2 10h-2l1 5-4 3-5 4h-7l-7-2-4-2-3-5-2-4v-8z" fill="#FCD5D2"/>
<path transform="translate(200,422)" d="m0 0h2v2l5 2 5 5v9l1 6-3 5h-2l-2 5-7 6-6 3h-5l-7-5-4-5-2-1v-3h-2l-2-13 6-8h7l1-2 2 2h-2v2l-7 3v11l4 7v2l4 1 10 2h3l2-5h2v-2l3-2v-13l-2-2v-4l-5-1-1-3 2-1z" fill="#FCE8E6"/>
<path transform="translate(359,403)" d="m0 0h5l4 1 2-1 2 1v3l4 2 1 8-5 5-6 4-6-1-6-3-2-4 1-3v-9z" fill="#EED7D4"/>
<path transform="translate(591,639)" d="m0 0 12 1 10 4 4 2v2l4 2v4l4 1-2 1-1 5-4-1-8-7-7-3-14-3-11 1-10 2 1-4 9-4z" fill="#F59BA8"/>
<path transform="translate(555,381)" d="m0 0 5 1v6l-3 4 3-1v4l-6 7-7 7-6 5-3 4-2-1 2-12 7-17 4-3h2l1-3z" fill="#F2A0AA"/>
<path transform="translate(683,659)" d="m0 0h11l12 3 1 3h2v2l4 2 4 5v2h-2l-1 2v-2l-4 2v-2l-5-2v-2l-6-1-2-2-14-2-12 1-7 1v-3l9-5z" fill="#F59BA8"/>
<path transform="translate(615,448)" d="m0 0 4 1v2l4 3-3 9-4 6h-2v2l-13 3h-7l-9-4-2-7 2-5 3 4 1 2 8 2 11-1 4-2 1-6 1-5z" fill="#FCE9E7"/>
<path transform="translate(631,524)" d="m0 0 11 1 2 2h10l1 1h10l3 3-3 5-4 3h-13l-11-4-7-8z" fill="#EFF6FA"/>
<path transform="translate(526,373)" d="m0 0 6 2 1 2-9 30-1 5-4-5-1-3v-15l-1-4 4-10z" fill="#91D0F2"/>
<path transform="translate(670,444)" d="m0 0h11l5 6 1 6-6 5h-8l-7-3-2-2v-8l3-3z" fill="#DC8C92"/>
<path transform="translate(275,409)" d="m0 0h13l3 2-1 5-4 8-3 1h-11l-5-5v-7l4-3z" fill="#FDEAE7"/>
<path transform="translate(614,307)" d="m0 0 12 1 5 4 1 5-2 6-6 3-10-2-3-3-1-6 3-7z" fill="#F9D8D5"/>
<path transform="translate(749,460)" d="m0 0 4 1 6 10-1 11-7 9-5 5-8 1-9-1-9-4-3-2v-2l-3-1-3-13v-6l4-4 2 1-3 11 3 7 3 3v2l4 1 8 4h9l7-4 7-11-1-6-3-8-3-3z" fill="#FDF3EE"/>
<path transform="translate(789,337)" d="m0 0h5l4 5 6 13v5l-3 1-6-5-5-10-4-1v2h-2l-6 12-2-1 1-9 6-8z" fill="#544C4A"/>
<path transform="translate(409,556)" d="m0 0h2l4 9 4 14v16l-4 6-2 2-7-1-4-3 1-2h7l2-3v-9l-2-11 1-11-2-4z" fill="#F7F1F1"/>
<path transform="translate(346,559)" d="m0 0 21 3 3 2-2 4h-6l1 7 9 2-1 4-5 5-9-11-7-10-4-3z" fill="#FAE5E3"/>
<path transform="translate(188,432)" d="m0 0h8l4 3 1 5h2l-1 4-2 4-2 1h-8l-4-2-3-5 1-5 2-4z" fill="#EED8D4"/>
<path transform="translate(234,300)" d="m0 0h11l6 7 1 5h-5l-4-4-5 1-3 8-1 1h-5l-2-3 1-9 4-5z" fill="#110F10"/>
<path transform="translate(684,657)" d="m0 0h13l10 4 11 11v3h2v4l-5 3h-4l-4-5-6-4-7-3h-22l-10 1-1-5 8-5zm-1 2-12 3-8 5 1 2 10-1 11-1 12 2 5 3h3l1 3 4 1 1 2 3-2 1 2v-2h2l-2-5-4-4h-2v-2h-2l-1-3-12-3z" fill="#FDDAD7"/>
<path transform="translate(249,278)" d="m0 0h7l10 4 2 4h-3-8l-2 1v3l-6 4-10-1-2-1v-2l-2-1 3-1 4-4h7l2-4-4-1z" fill="#FBD5D2"/>
<path transform="translate(657,556)" d="m0 0h11l7 7v3h2l1 3-4 4-6 1-3-1-4-9-5-6z" fill="#ECF5FB"/>
<path transform="translate(333,533)" d="m0 0 4 1 2 4 1 8-4 5-6 1-4-5-2-6v-6l3-1h5z" fill="#F8D2D0"/>
<path transform="translate(792,311)" d="m0 0 4 1-1 11 4 1 6-2h5l1 5-5 5h-9l-6-2-2-4 1-8z" fill="#534B4A"/>
<path transform="translate(370,564)" d="m0 0h16v1l-10 1 4 7 3 2-7 1-4 3-10-4-1-7 5-1 3-1z" fill="#FAD5D2"/>
<path transform="translate(732,452)" d="m0 0 2 4-2 2-1 4 4 1-1 6-1 1h-7l-3-3-4-3 1-6 3-3z" fill="#D0E8F8"/>
<path transform="translate(352,528)" d="m0 0h5l4 11 5 6 9 1-1 2h-2v2h-14l-2-1-4-16z" fill="#FAE2E0"/>
<path transform="translate(595,475)" d="m0 0 12 2 1 1v5l-2 2h-13l-6-3-1-3 2-3z" fill="#90D0F2"/>
<path transform="translate(770,316)" d="m0 0 4 1 4 4 2 3-1 7-11 10-6-1 1-4 8-6 3-4-5-9z" fill="#544C4A"/>
<path transform="translate(586,638)" d="m0 0h16l10 4 8 5 6 7-1 5-3 4-4-1 1-2h3l2-5-3-1-2-5-2-1v-2l-4-1-10-4-12-1-16 4-6 3-1 3 6-1-2 2h-6l1-5 4-3 8-4z" fill="#FDDDDA"/>
<path transform="translate(616,450)" d="m0 0 4 2 3 2-3 9-4 6h-2v2l-13 3h-7l-5-2v-1l19-1v-2l8-6 1-2v-7z" fill="#FDF3EE"/>
<path transform="translate(555,381)" d="m0 0 5 1v6l-6 5-11 1 2-6 4-3h2l1-3z" fill="#93CFF0"/>
<path transform="translate(626,312)" d="m0 0h4l2 4-2 7-6 3-10-2 4-2 1-4 2-1 2-4 3 1z" fill="#EED5D2"/>
<path transform="translate(224,290)" d="m0 0 5 2 1 8 1 3-3 3h-6l-2 1v-8z" fill="#F9D2CF"/>
<path transform="translate(552,542)" d="m0 0 5 3 1 4-3 8v9l-2 5-2-1v-27z" fill="#F6F2F1"/>
<path transform="translate(670,442)" d="m0 0h9l6 4 3 4v7l-6 5-2 1h-8l-7-4-3-4v-7l5-5zm0 2-5 3-1 1v8l5 4 4 1h8l6-5-1-6-5-6z" fill="#FDF0EC"/>
<path transform="translate(221,305)" d="m0 0h7v10l2 3 3 2-3 1v2l6 2v1l-7-1-6-7-2-5z" fill="#F8E0DE"/>
<path transform="translate(326,536)" d="m0 0 5 1v2h-2l4 6 6 1-2 4-3 2-5-1-3-4-1-3v-7z" fill="#FAE3E1"/>
<path transform="translate(669,661)" d="m0 0 4 1-9 5v1l10-1 11-1 12 2 5 3 3 1 1 4-12-6h-22l-10 1-1-5z" fill="#FDDAD7"/>
<path transform="translate(578,548)" d="m0 0h6v2h5l-1 6h-14v-3z" fill="#E8F2F8"/>
<path transform="translate(600,429)" d="m0 0 5 1-1 9-5 1-4-4 3-6z" fill="#90D0F2"/>
<path transform="translate(586,638)" d="m0 0h12l1 2h-8l-16 4-6 3-1 3 6-1-2 2h-6l1-5 4-3 8-4z" fill="#FDD9D6"/>
<path transform="translate(544,460)" d="m0 0h8l3 5v5l-4-2-8-5z" fill="#EFB5B8"/>
<path transform="translate(785,343)" d="m0 0 1 4h-2l-6 12-2-1 1-9 5-4z" fill="#3E3937"/>
<path transform="translate(556,391)" d="m0 0h4v4l-6 7-3 2 2-4 3-3-11-2-2-1 1-1 10-1z" fill="#F3D6D3"/>
<path transform="translate(346,559)" d="m0 0 11 2-2 8-3-1-5-5z" fill="#F8EAE7"/>
<path transform="translate(631,524)" d="m0 0 11 1 2 2h10v3l-12-1h-3v-2h-9z" fill="#B4DEF6"/>
<path transform="translate(706,675)" d="m0 0 5 2 6-2h3v4l-5 3h-4z" fill="#FDD8D5"/>
<path transform="translate(669,661)" d="m0 0 4 1-9 5v1l8-1 8 1v1l-12 2h-6l-1-5z" fill="#FDDFDC"/>
<path transform="translate(249,303)" d="m0 0 4 1 2-1 2 6 3 1-4 1v2h-3l-4-7z" fill="#F9E5E3"/>
<path transform="translate(250,298)" d="m0 0h6l-1 5-3 2-5-2-2-4z" fill="#FAD3D1"/>
<path transform="translate(375,508)" d="m0 0 2 2-1 10-5 3h-2l2-4z" fill="#F9E3E1"/>
<path transform="translate(394,531)" d="m0 0h1v18l-3 1v-2l-2-1v-3l2-1 1-4v-6z" fill="#FBE5E3"/>
<path transform="translate(704,585)" d="m0 0 4 2v7h-4l-3-7z" fill="#EDF1F6"/>
<path transform="translate(551,555)" d="m0 0 4 2v9l-2 5-2-1z" fill="#E9C6C4"/>
<path transform="translate(265,323)" d="m0 0 2 4v8l-3-1-3-7 1-3 3 1z" fill="#F9E6E4"/>
<path transform="translate(245,324)" d="m0 0 3 1-1 4v7l-3-2-1-8h-5v-1z" fill="#F8E8E5"/>
<path transform="translate(253,324)" d="m0 0 2 1 2 4v6h-4l-1-10z" fill="#F8EBEA"/>
<path transform="translate(239,307)" d="m0 0 5 1 2 4-4-1-1 3-4 1v-6z" fill="#FBEBE7"/>
<path transform="translate(296,658)" d="m0 0 4 1-5 5h-2l-1 4h-4l2-4z" fill="#1F1C1C"/>
<path transform="translate(598,428)" d="m0 0h5l-3 2-3 3-1 4 2 2-3 1v-2h-5l4-5 2-4z" fill="#D0E9F9"/>
<path transform="translate(359,403)" d="m0 0h5l1 2-6 3h-3l-1 3-2-4 4-3z" fill="#FDD7D4"/>
<path transform="translate(597,449)" d="m0 0h6l-1 6-5-1-1-4z" fill="#F59BA8"/>
<path transform="translate(621,650)" d="m0 0 4 2 1 5-4 6-4-1 1-2h3l2-5-3-1z" fill="#FDD9D6"/>
<path transform="translate(414,578)" d="m0 0 2 1v10l-3 2-1-10h2z" fill="#F9ECE8"/>
<path transform="translate(649,332)" d="m0 0 7 1 2 2-3 2-7-1z" fill="#ECF6FB"/>
<path transform="translate(336,512)" d="m0 0 4 1-9 5-2 1v-3l-2-1z" fill="#F1A1AB"/>
<path transform="translate(594,439)" d="m0 0h10l1 3h-14l-4 3 2-5z" fill="#EED8D5"/>
<path transform="translate(595,648)" d="m0 0 11 2 8 5h-3l-9-4-7-2z" fill="#FDD9D6"/>
<path transform="translate(409,556)" d="m0 0h2l4 9-1 2-3 2v-6l-2-4z" fill="#EFDADA"/>
<path transform="translate(229,321)" d="m0 0 4 1 5 2v2h5l-1 2-8-1-1-2-4-2z" fill="#F0D2CF"/>
<path transform="translate(226,316)" d="m0 0 7 3-3 2v2l6 2v1l-7-1-2-4z" fill="#F9E8E6"/>
<path transform="translate(255,245)" d="m0 0h14l1 2-14 1z" fill="#5E514F"/>
<path transform="translate(301,561)" d="m0 0h1l3 10-1 2-4-1z" fill="#F198A4"/>
<path transform="translate(550,463)" d="m0 0 5 2v5l-4-2-3-3h2z" fill="#F5C5C5"/>
<path transform="translate(262,320)" d="m0 0 5 2v5l-2-2h-5l1-4z" fill="#FAD7D4"/>
<path transform="translate(235,318)" d="m0 0h2l1 5-3 1-5-4z" fill="#FDD7D4"/>
</svg>
